<?xml version="1.0" encoding="UTF-8"?>
<svg width="134px" height="136px" viewBox="0 0 134 136" version="1.1" xmlns="http://www.w3.org/2000/svg" xmlns:xlink="http://www.w3.org/1999/xlink">
    <!-- Generator: Sketch 55.2 (78181) - https://sketchapp.com -->
    <title>premium</title>
    <desc>Created with Sketch.</desc>
    <g id="Page-1" stroke="none" stroke-width="1" fill="none" fill-rule="evenodd">
        <g id="Buy-credits-/-premium" transform="translate(-366.000000, -475.000000)" fill-rule="nonzero">
            <g id="Group-11" transform="translate(366.000000, 475.000000)">
                <g id="premium">
                    <circle id="Oval" fill="#F0BC5E" cx="67" cy="46" r="46"></circle>
                    <path d="M93.4492149,27 L97,24.4279793 C91.9143311,17.3042746 84.4891672,12.1800518 76.093222,10 L75,14.2676166 C82.4098589,16.1878238 88.9604452,20.7086788 93.4492149,27 Z" id="Path" fill="#000000"></path>
                    <path d="M72,8.31190926 C70.3568738,8.10396975 68.6737288,8 67,8 L67,12.7258979 C68.4783427,12.7258979 69.9637476,12.8180529 71.4161959,13 L72,8.31190926 Z" id="Path" fill="#000000"></path>
                    <path d="M134,100.93617 L114.977086,100.93617 L114.977086,87.787234 L69.763044,87.787234 L100.217589,48.4390426 L89.9744817,33 L44.0255183,33 L33.7824106,48.4390426 L64.236956,87.787234 L19.0229144,87.787234 L19.0229144,100.93617 L0,100.93617 L9.96832992,118.468085 L0,136 L40.8306806,136 L40.8306806,122.851064 L93.1693194,122.851064 L93.1693194,136 L134,136 L124.03167,118.468085 L134,100.93617 Z M75.0361618,50.5319149 L67,79.5998298 L58.9638382,50.5319149 L75.0361618,50.5319149 Z M60.752075,46.1489362 L67,38.6145957 L73.247925,46.1489362 L60.752075,46.1489362 Z M79.5612733,50.5319149 L93.0711845,50.5319149 L72.0550402,77.6866596 L79.5612733,50.5319149 Z M82.5598412,46.1489362 L88.613677,38.8490851 L93.4550011,46.1489362 L82.5598412,46.1489362 Z M77.9038831,44.9173191 L71.6559581,37.3829787 L84.1496273,37.3829787 L77.9038831,44.9173191 Z M56.0961169,44.9173191 L49.8481919,37.3829787 L62.3418611,37.3829787 L56.0961169,44.9173191 Z M51.4401588,46.1489362 L40.5449989,46.1489362 L45.386323,38.8490851 L51.4401588,46.1489362 Z M54.4387267,50.5319149 L61.9449598,77.6866596 L40.9288155,50.5319149 L54.4387267,50.5319149 Z M110.615532,92.1702128 L110.615532,118.468085 L23.3844677,118.468085 L23.3844677,92.1702128 L110.615532,92.1702128 Z M14.9928392,118.468085 L7.51495622,105.319149 L19.0229144,105.319149 L19.0229144,121.755319 L32.1075741,131.617021 L7.51495622,131.617021 L14.9928392,118.468085 Z M36.4691274,129.425532 L27.7460209,122.851064 L36.4691274,122.851064 L36.4691274,129.425532 Z M106.253979,122.851064 L97.5308726,129.425532 L97.5308726,122.851064 L106.253979,122.851064 Z M126.485044,131.617021 L101.892426,131.617021 L114.977086,121.755319 L114.977086,105.319149 L126.485044,105.319149 L119.007161,118.468085 L126.485044,131.617021 Z" id="Shape" fill="#000000"></path>
                    <rect id="Rectangle" fill="#000000" x="65" y="99" width="5" height="5"></rect>
                    <rect id="Rectangle" fill="#000000" x="60" y="103" width="5" height="5"></rect>
                    <rect id="Rectangle" fill="#000000" x="65" y="108" width="5" height="5"></rect>
                    <rect id="Rectangle" fill="#000000" x="69" y="103" width="5" height="5"></rect>
                    <rect id="Rectangle" fill="#000000" x="93" y="99" width="5" height="5"></rect>
                    <rect id="Rectangle" fill="#000000" x="89" y="103" width="5" height="5"></rect>
                    <rect id="Rectangle" fill="#000000" x="93" y="108" width="5" height="5"></rect>
                    <rect id="Rectangle" fill="#000000" x="97" y="103" width="5" height="5"></rect>
                    <rect id="Rectangle" fill="#000000" x="36" y="99" width="5" height="5"></rect>
                    <rect id="Rectangle" fill="#000000" x="32" y="103" width="5" height="5"></rect>
                    <rect id="Rectangle" fill="#000000" x="36" y="108" width="5" height="5"></rect>
                    <rect id="Rectangle" fill="#000000" x="40" y="103" width="5" height="5"></rect>
                </g>
            </g>
        </g>
    </g>
</svg>