<svg xmlns="http://www.w3.org/2000/svg" width="130" height="117" viewBox="0 0 130 117">
    <g fill="#FFF" fill-rule="evenodd">
        <path d="M126.952 90.258c-.09.162-.447.684-1.165.633l-22.595-1.645-1.925-.086-.509 1.825-5.498 22.087c-.178.71-.782.88-.963.915a1.214 1.214 0 0 1-1.233-.488L71.907 84.187l.023-.004c.414-.07.826-.147 1.236-.23a41.21 41.21 0 0 0 1.35-.294 42.111 42.111 0 0 0 1.368-.345c.068-.017.136-.036.203-.054.39-.108.78-.22 1.166-.339l.14-.044a41.967 41.967 0 0 0 2.417-.833l.128-.048c.38-.146.758-.297 1.134-.454l.168-.07c.371-.157.74-.318 1.106-.485l.157-.073c.373-.171.744-.348 1.11-.53l.095-.048c.77-.384 1.525-.792 2.268-1.222l.095-.054a42.315 42.315 0 0 0 2.214-1.384l.124-.083c.344-.232.686-.469 1.024-.711l.063-.046a42.154 42.154 0 0 0 2.055-1.578l.078-.063c.32-.262.634-.53.946-.802l.112-.098c.308-.27.61-.544.91-.822l.104-.097c.304-.285.605-.574.901-.869l.052-.052a42.32 42.32 0 0 0 1.779-1.886l.074-.084a40.881 40.881 0 0 0 .906-1.063 42.198 42.198 0 0 0 1.607-2.074l.052-.072a42.843 42.843 0 0 0 1.45-2.142l.075-.118a41.918 41.918 0 0 0 1.328-2.265l.087-.16c.196-.364.388-.73.574-1.1l.051-.104c.189-.378.373-.76.55-1.144l.021-.045c.177-.383.347-.77.512-1.16l.07-.162c.157-.373.308-.75.455-1.13.014-.036.03-.07.043-.107l22.585 31.293c.427.591.168 1.164.079 1.326zm-66.364-8.491A39.23 39.23 0 0 1 52.15 79.9C40.45 75.916 31.085 66.55 27.236 54.408a39.65 39.65 0 0 1-1.853-12.021c0-21.84 17.709-39.607 39.476-39.607s39.475 17.768 39.475 39.607a39.732 39.732 0 0 1-2.265 13.256c-5.032 14.243-17.751 24.425-32.79 26.106-2.84.32-5.802.327-8.691.018zM36.82 113.499a1.212 1.212 0 0 1-1.23.488 1.219 1.219 0 0 1-.963-.915l-5.489-22.05-.519-1.862-1.886.084L4.1 90.89c-.729.052-1.077-.473-1.167-.634a1.221 1.221 0 0 1 .08-1.326L18.661 67.25l6.83-9.459c.013.036.028.07.042.106a42 42 0 0 0 .462 1.134l.066.153c.168.392.34.781.52 1.167l.013.026c.18.387.367.771.56 1.152l.054.11c.187.368.38.732.577 1.094l.088.162c.195.355.395.706.6 1.053l.096.162c.209.351.421.7.64 1.044l.074.115c.463.726.948 1.436 1.453 2.129l.06.084c.244.333.493.662.746.987l.102.131a42.782 42.782 0 0 0 1.672 2.003l.08.088c.57.64 1.16 1.26 1.768 1.863l.072.072a43.395 43.395 0 0 0 1.908 1.768l.129.112c.308.266.619.528.934.785l.093.076c.661.535 1.338 1.05 2.03 1.546l.095.068a42.386 42.386 0 0 0 2.155 1.436l.157.097c.344.211.69.419 1.039.62l.118.068c.73.42 1.475.817 2.232 1.193l.13.064c.359.177.72.348 1.085.515l.186.084a42.477 42.477 0 0 0 2.391.992l.148.055a41.716 41.716 0 0 0 1.196.43c.395.133.793.26 1.193.383.056.018.111.036.167.052.38.116.764.225 1.149.33l.218.059c.38.1.763.197 1.147.288l.22.051c.391.09.784.176 1.178.255.056.011.113.021.169.033.405.08.81.154 1.219.221l.038.007L36.82 113.5zm92.297-26.198L105.38 54.41a42.533 42.533 0 0 0 1.726-12.024C107.105 19.015 88.154 0 64.86 0S22.612 19.015 22.612 42.387c0 4.154.598 8.252 1.777 12.19l-7.972 11.04L.77 87.3a3.988 3.988 0 0 0-.26 4.308 3.964 3.964 0 0 0 3.79 2.056l22.236-1.62 5.402 21.703a3.974 3.974 0 0 0 3.126 2.97 3.954 3.954 0 0 0 4-1.587l22.034-30.524c1.25.11 2.511.17 3.76.17 1.312 0 2.626-.065 3.919-.185l22.043 30.54a3.959 3.959 0 0 0 4.004 1.586 3.975 3.975 0 0 0 3.124-2.971l5.402-21.701 22.236 1.619a3.962 3.962 0 0 0 3.787-2.054 3.99 3.99 0 0 0-.256-4.31z"/>
        <path d="M62.445 60.16l-10.003 5.276a2.364 2.364 0 0 1-2.544-.184 2.382 2.382 0 0 1-.961-2.37l1.91-11.177a5.214 5.214 0 0 0-1.491-4.607l-8.093-7.915a2.384 2.384 0 0 1-.612-2.485 2.372 2.372 0 0 1 1.95-1.649l11.185-1.63a5.186 5.186 0 0 0 3.905-2.847l5.002-10.17a2.37 2.37 0 0 1 2.166-1.35c.94 0 1.75.505 2.166 1.35l5.002 10.17a5.186 5.186 0 0 0 3.905 2.846l11.184 1.631c.93.136 1.66.752 1.95 1.65.29.897.063 1.826-.61 2.484l-8.094 7.915a5.215 5.215 0 0 0-1.492 4.607l1.911 11.177c.159.93-.2 1.815-.961 2.37a2.364 2.364 0 0 1-2.544.184L67.272 60.16a5.17 5.17 0 0 0-4.827 0m19.004 7.342a5.18 5.18 0 0 0 2.063-5.09l-1.91-11.176a2.429 2.429 0 0 1 .694-2.146l8.093-7.915a5.183 5.183 0 0 0 1.312-5.335 5.159 5.159 0 0 0-4.186-3.541L76.33 30.667a2.416 2.416 0 0 1-1.819-1.326L69.51 19.172a5.153 5.153 0 0 0-4.651-2.9 5.153 5.153 0 0 0-4.651 2.9l-5.002 10.17a2.415 2.415 0 0 1-1.819 1.325l-11.184 1.63a5.159 5.159 0 0 0-4.187 3.542 5.183 5.183 0 0 0 1.313 5.335l8.093 7.916c.57.556.829 1.358.694 2.145l-1.91 11.176a5.18 5.18 0 0 0 2.063 5.09c.91.663 1.973 1 3.044 1 .824 0 1.653-.2 2.418-.604l10.004-5.277a2.409 2.409 0 0 1 2.248 0l10.004 5.277a5.14 5.14 0 0 0 5.462-.396"/>
    </g>
</svg>
