<svg xmlns="http://www.w3.org/2000/svg" xmlns:xlink="http://www.w3.org/1999/xlink" width="130" height="116" viewBox="0 0 130 116">
    <defs>
        <path id="a" d="M0 .132h60.339v61.515H0z"/>
    </defs>
    <g fill="none" fill-rule="evenodd">
        <g transform="translate(0 54.14)">
            <mask id="b" fill="#fff">
                <use xlink:href="#a"/>
            </mask>
            <path fill="#2196F3" d="M60.339 28.892L45.185 49.76l-7.833 10.784c-1.333 1.835-4.21 1.28-4.761-.92L26.982 37.23l-.217-.774-.804.035-23.086 1.67c-2.268.163-3.695-2.39-2.36-4.225l15.99-22.021L25.065.132c4.923 15.44 18.636 26.974 35.274 28.76" mask="url(#b)"/>
        </g>
        <path fill="#2196F3" d="M127.007 92.304l-23.086-1.671-.805-.035-.217.774-5.608 22.393c-.552 2.2-3.428 2.755-4.763.92L84.697 103.9l-4.42-6.085-6.192-8.529-4.556-6.273c16.626-1.847 30.305-13.43 35.17-28.906l6.224 8.572 7.279 10.024 3.334 4.59 7.83 10.784c1.333 1.835-.092 4.388-2.359 4.226"/>
        <path fill="#FFC107" d="M64.855 0C41.797 0 23.104 18.64 23.104 41.635c0 4.405.686 8.652 1.96 12.638 4.924 15.44 18.637 26.974 35.275 28.76a42.622 42.622 0 0 0 9.19-.019c16.626-1.847 30.305-13.43 35.17-28.906a41.503 41.503 0 0 0 1.907-12.473C106.606 18.64 87.913 0 64.855 0"/>
        <path fill="#FFF" d="M68.338 18.684l5.11 10.327a3.882 3.882 0 0 0 2.925 2.119L87.8 32.786c3.185.462 4.457 4.366 2.152 6.607l-8.27 8.039a3.866 3.866 0 0 0-1.116 3.428l1.952 11.351c.544 3.164-2.786 5.577-5.635 4.083l-10.222-5.36a3.892 3.892 0 0 0-3.614 0l-10.222 5.36c-2.85 1.494-6.18-.919-5.635-4.083l1.952-11.351a3.867 3.867 0 0 0-1.117-3.428l-8.27-8.04c-2.304-2.24-1.032-6.144 2.153-6.606l11.428-1.656a3.882 3.882 0 0 0 2.924-2.119l5.111-10.327c1.425-2.879 5.541-2.879 6.966 0"/>
    </g>
</svg>
