<?xml version="1.0" encoding="UTF-8"?>
<svg width="18px" height="18px" viewBox="0 0 18 18" version="1.1" xmlns="http://www.w3.org/2000/svg" xmlns:xlink="http://www.w3.org/1999/xlink">
    <!-- Generator: Sketch 56.3 (81716) - https://sketch.com -->
    <title>smile-grey</title>
    <desc>Created with Sketch.</desc>
    <g id="Studio-dashboard" stroke="none" stroke-width="1" fill="none" fill-rule="evenodd">
        <g id="smile-grey" fill="#3DBA19" fill-rule="nonzero">
            <path d="M15.3639492,2.63605078 C17.0638594,4.33589063 18,6.59601563 18,9 C18,11.4039844 17.0638594,13.6641094 15.3639492,15.3639492 C13.6641094,17.0638242 11.4039844,18 9,18 C6.59601562,18 4.33589062,17.0638242 2.63605078,15.3639492 C0.936140625,13.6641094 0,11.4039844 0,9 C0,6.59601563 0.936140625,4.33589063 2.63605078,2.63605078 C4.33589062,0.93617578 6.59601562,0 9,0 C11.4039844,0 13.6641094,0.93617578 15.3639492,2.63605078 Z M9,16.9285781 C13.3718203,16.9285781 16.9285781,13.3718203 16.9285781,9 C16.9285781,4.62817969 13.3718203,1.07142188 9,1.07142188 C4.62817969,1.07142188 1.07142188,4.62817969 1.07142188,9 C1.07142188,13.3718203 4.62817969,16.9285781 9,16.9285781 Z M7.24542291,6.4880711 C7.46721197,6.69937658 7.46721197,7.04195349 7.24542291,7.25325897 C7.13458429,7.35892946 6.98919711,7.41176471 6.84388446,7.41176471 C6.69857182,7.41176471 6.55325918,7.35892946 6.44234601,7.25325897 C5.95523746,6.78917519 5.16259594,6.78913968 4.67541285,7.25325897 C4.45366106,7.46452894 4.09405047,7.46452894 3.87222415,7.25325897 C3.65043509,7.04195349 3.65043509,6.69934107 3.87222415,6.4880711 C4.8022027,5.60205102 6.31544436,5.60198001 7.24542291,6.4880711 Z M14.1277759,6.4880711 C14.3495649,6.69937658 14.3495649,7.04195349 14.1277759,7.25325897 C14.0169372,7.35892946 13.87155,7.41176471 13.7262374,7.41176471 C13.5809248,7.41176471 13.4356121,7.35892946 13.324699,7.25325897 C12.8375159,6.78910418 12.0448743,6.78913968 11.5577658,7.25325897 C11.336014,7.46452894 10.9764034,7.46452894 10.7545771,7.25325897 C10.532788,7.04195349 10.532788,6.69934107 10.7545771,6.4880711 C11.6845556,5.60198001 13.1977973,5.60205102 14.1277759,6.4880711 Z M13.7575543,9.52941176 C14.0539001,9.52941176 14.2941176,9.7693347 14.2941176,10.065317 C14.2941176,12.9808975 11.919161,15.3529412 9,15.3529412 C6.08083897,15.3529412 3.70588235,12.9808975 3.70588235,10.065317 C3.70588235,9.7693699 3.94609992,9.52941176 4.24244571,9.52941176 L13.7575543,9.52941176 Z M9,14.2811307 C11.1457605,14.2811307 12.9227085,12.6738018 13.1870816,10.6012222 L4.81295363,10.6012222 C5.07729154,12.6738018 6.85423953,14.2811307 9,14.2811307 Z" id="path-1"></path>
        </g>
    </g>
</svg>